<svg width="168" height="168" viewBox="0 0 168 168" fill="none" xmlns="http://www.w3.org/2000/svg">
<rect width="168" height="168" rx="27.7477" fill="#28D200"/>
<path d="M134.955 130.965C134.955 133.751 132.696 136.01 129.91 136.01H99.6396C96.8533 136.01 94.5946 133.751 94.5946 130.965V103.072C94.5946 101.957 93.6911 101.054 92.5766 101.054H75.4234C74.3089 101.054 73.4054 101.957 73.4054 103.072V130.965C73.4054 133.751 71.1467 136.01 68.3604 136.01H38.0901C35.3038 136.01 33.045 133.751 33.045 130.965V66.4142C33.045 63.9744 34.2213 61.6844 36.2043 60.2632L79.5917 29.1682C82.2271 27.2794 85.7729 27.2794 88.4083 29.1682L131.796 60.2632C133.779 61.6844 134.955 63.9744 134.955 66.4142V130.965ZM105.946 122.64C105.946 123.755 106.849 124.658 107.964 124.658H121.586C122.7 124.658 123.604 123.755 123.604 122.64V70.9494C123.604 69.3229 122.819 67.7962 121.497 66.8487L86.9389 42.081C85.1819 40.8218 82.8181 40.8218 81.0611 42.081L46.5025 66.8487C45.1805 67.7962 44.3964 69.3229 44.3964 70.9494V122.64C44.3964 123.755 45.2999 124.658 46.4144 124.658H60.036C61.1506 124.658 62.0541 123.755 62.0541 122.64V94.7475C62.0541 91.9612 64.3128 89.7025 67.0991 89.7025H100.901C103.687 89.7025 105.946 91.9612 105.946 94.7475V122.64Z" fill="white"/>
</svg>
